<svg width="41" height="36" viewBox="0 0 41 36" fill="none" xmlns="http://www.w3.org/2000/svg">
<path d="M17.8261 0C8.05115 0 0 8.1297 0 18C0 27.8703 8.05115 36 17.8261 36C25.1036 36 31.225 31.4456 33.9462 25.1033L33.9549 25.0945C35.176 22.705 39.2288 13.0427 40.6362 8.89277C40.7859 8.44097 41 7.70677 41 6.70957C41 3.06817 38.0833 0 34.4771 0H17.8261ZM17.8261 1.8H34.4771C37.0467 1.8 39.2174 4.04827 39.2174 6.70957C39.2174 7.40617 39.0794 7.91498 38.9493 8.30918C37.5963 12.298 33.7796 21.4014 32.4926 24.0258L32.4456 24.0732L32.3115 24.3896C29.7544 30.3494 24.0679 34.2 17.8261 34.2C8.97989 34.2 1.78261 26.9325 1.78261 18C1.78261 9.0675 8.97989 1.8 17.8261 1.8ZM17.8261 3.6C10.111 3.6 3.56522 10.2096 3.56522 18C3.56522 25.7904 10.111 32.4 17.8261 32.4C25.5412 32.4 31.1957 25.7904 31.1957 18C31.1957 10.2096 25.5412 3.6 17.8261 3.6ZM17.8261 5.4C24.3237 5.4 29.413 10.935 29.413 18C29.413 25.065 24.3237 30.6 17.8261 30.6C11.062 30.6 5.34783 24.8301 5.34783 18C5.34783 11.1699 11.062 5.4 17.8261 5.4ZM17.0236 7.4707C16.1323 7.4707 15.6053 8.08252 15.5473 9.01582C15.5188 9.47752 15.3423 9.78742 15.0303 10.1285C14.4759 10.7333 13.7845 11.2683 13.6464 12.1746C13.4832 13.2456 13.2958 14.3125 13.1398 15.3844C13.0649 15.8974 13.0157 16.4173 13.0005 16.9348C12.9836 17.4856 13.1313 18.0643 13.011 18.5854C12.7213 19.8409 12.2934 21.0619 11.9717 22.3102C11.8237 22.8835 11.5854 23.2929 11.0595 23.6232C9.86959 24.3684 9.53356 25.4801 10.0202 26.6906C10.2404 27.2396 10.7673 27.5213 11.3136 27.4043C11.926 27.2738 11.8472 26.8363 11.775 26.3971C11.6965 25.9264 12.0194 25.9044 12.3251 25.926C12.9115 25.9683 13.2524 25.713 13.4601 25.1613C14.0787 23.5233 14.7202 21.8939 15.3628 20.2658C15.6151 19.6259 15.865 19.5519 16.3116 20.0496C17.0799 20.9055 17.8001 21.8034 18.5381 22.6863C18.5844 22.7421 18.623 22.8148 18.6391 22.885C18.9385 24.1945 19.2991 25.495 19.5112 26.8189C19.6618 27.7639 20.2851 28.478 21.2486 28.5293C21.5186 28.5437 21.8811 28.5466 22.0389 28.3711C22.1414 28.2577 22.016 27.8302 21.8787 27.6187C21.3698 26.8357 21.2577 25.9772 21.1633 25.0664C21.0046 23.5409 20.9223 21.958 19.7636 20.7457C19.4374 20.4046 19.128 20.041 19.4329 19.5082C19.4757 19.4326 19.4473 19.2648 19.3894 19.1883C18.851 18.48 18.3506 17.7318 17.7321 17.1018C17.3283 16.6905 17.1758 16.3938 17.4762 15.8871C17.6241 15.6378 17.7864 15.3575 17.8087 15.0803C17.855 14.5052 18.1142 14.2903 18.6721 14.2066C19.4627 14.0869 20.3055 14.0208 20.8412 13.2486C20.9214 13.1334 21.1911 13.0605 21.3391 13.101C21.8961 13.2522 22.2369 13.1239 22.2913 12.4471L22.8066 12.3275C23.2433 12.1088 23.5447 11.9611 23.8441 11.8072C24.1935 11.6272 24.5267 11.407 24.8921 11.2711C25.2121 11.1523 25.567 11.1265 25.8513 11.0707C25.7114 10.7719 25.5856 10.4959 25.4823 10.2709C24.7959 10.2709 24.0754 10.4657 23.5673 10.2182C23.0317 9.95716 22.5968 10.1177 22.1172 10.0916C21.7866 10.0736 21.3991 10.1225 21.1406 9.9668C20.4329 9.5393 19.8367 9.8364 19.2083 10.1127C19.055 10.1802 18.8676 10.1692 18.6965 10.1953C18.6805 10.0054 18.6414 9.81474 18.6547 9.62754C18.6761 9.33684 18.8162 9.03175 18.7592 8.76445C18.5773 7.90315 17.8257 7.4707 17.0236 7.4707ZM19.1073 11.2869C19.3894 11.2418 19.7203 11.3013 20.0839 11.4768C19.5661 11.7189 19.1318 11.9365 18.6826 12.1219C18.5979 12.157 18.4381 12.0866 18.3588 12.0146C18.3231 11.9822 18.3723 11.8065 18.4267 11.7264C18.5925 11.4811 18.8252 11.332 19.1073 11.2869Z" fill="black"/>
</svg>
