<svg width="40" height="34" viewBox="0 0 40 34" fill="none" xmlns="http://www.w3.org/2000/svg">
<path d="M1.66675 7.69071e-07C1.6047 0.000400684 1.54335 0.0128552 1.4862 0.03665C1.42906 0.0604448 1.37725 0.0951115 1.33374 0.138662C1.29024 0.182212 1.2559 0.233788 1.23269 0.290433C1.20948 0.347077 1.19786 0.407675 1.1985 0.46875V4.49609L1.52786 4.82031L1.1985 5.34374V8.72655C1.1481 8.7259 1.09807 8.73513 1.05133 8.75369C1.00459 8.77226 0.962075 8.79979 0.926251 8.83469C0.890428 8.86959 0.862016 8.91116 0.842672 8.95698C0.823328 9.00279 0.813437 9.05194 0.813577 9.10155V11.1758C0.813961 11.2251 0.824238 11.2738 0.843816 11.3191C0.863395 11.3645 0.891888 11.4056 0.927659 11.4401C0.963429 11.4746 1.00577 11.5018 1.05225 11.5201C1.09873 11.5384 1.14843 11.5475 1.1985 11.5469V11.7187L1.42072 12.0312L1.19453 12.3164V18.5429C1.1941 18.6346 1.21205 18.7253 1.24734 18.8101C1.28264 18.8949 1.33459 18.972 1.40021 19.0369C1.46584 19.1019 1.54384 19.1535 1.62976 19.1887C1.71567 19.2239 1.80781 19.2421 1.90088 19.2422H3.53976C3.63283 19.2421 3.72496 19.2239 3.81088 19.1887C3.89679 19.1535 3.9748 19.1019 4.04042 19.0369C4.10605 18.972 4.158 18.8949 4.1933 18.8101C4.22859 18.7253 4.24654 18.6346 4.24611 18.5429V11.543H6.29769H7.52785C7.90449 11.5425 8.26559 11.3951 8.53192 11.1329C8.79825 10.8707 8.94806 10.5153 8.94848 10.1445V1.39844C8.94806 1.02768 8.79825 0.672218 8.53192 0.41005C8.26559 0.147882 7.90449 0.000414308 7.52785 7.69071e-07H1.66675ZM21.7064 7.69071e-07C21.6443 -0.000110426 21.5829 0.0118372 21.5255 0.0351584C21.4682 0.0584795 21.4161 0.0927154 21.3722 0.135902C21.3283 0.179089 21.2936 0.230377 21.2699 0.286825C21.2462 0.343272 21.234 0.403769 21.2342 0.464844V4.70312L21.4127 5.29296L21.2342 5.6289V6.88671L21.5318 7.2578L21.2342 7.82811C21.1337 7.82888 21.0377 7.86876 20.9671 7.93903C20.8964 8.00931 20.8569 8.10425 20.8572 8.20311V10.0273C20.858 10.1255 20.8979 10.2195 20.9684 10.2889C21.039 10.3583 21.1344 10.3977 21.2342 10.3984V18.7773C21.234 18.8384 21.2462 18.8989 21.2699 18.9553C21.2936 19.0118 21.3283 19.0631 21.3722 19.1063C21.4161 19.1494 21.4682 19.1837 21.5255 19.207C21.5829 19.2303 21.6443 19.2423 21.7064 19.2422H27.3651C27.5519 19.2425 27.737 19.2065 27.9097 19.1364C28.0824 19.0663 28.2394 18.9634 28.3717 18.8335C28.504 18.7036 28.609 18.5494 28.6808 18.3795C28.7525 18.2097 28.7895 18.0276 28.7897 17.8437V10.5312V10.25C28.7843 9.96346 28.6998 9.68378 28.5453 9.44089C28.3909 9.19799 28.1722 9.00103 27.9127 8.87108L28.0476 8.76952C28.2694 8.60447 28.4514 8.39313 28.5803 8.15067C28.7093 7.90821 28.7822 7.64064 28.7937 7.36718V6.6289L28.6468 6.19921L28.7699 5.70702L28.5476 5.25781L28.7699 4.72656V0.933593C28.7714 0.687563 28.6736 0.451011 28.498 0.275943C28.3223 0.100875 28.0833 0.00162041 27.8334 7.69071e-07H21.7064ZM31.9921 7.69071e-07C31.6802 0.000993317 31.3814 0.123667 31.1612 0.341135C30.941 0.558603 30.8174 0.853126 30.8175 1.16016V17.8476C30.8189 18.2164 30.9681 18.5696 31.2326 18.8308C31.4971 19.0919 31.8556 19.2397 32.2302 19.2422H37.0635C37.4401 19.2417 37.8012 19.0943 38.0676 18.8321C38.3339 18.5699 38.4837 18.2145 38.4841 17.8437V8.04296C38.4843 7.92028 38.4352 7.80251 38.3475 7.71539C38.2597 7.62828 38.1405 7.57893 38.0159 7.57811H35.4563C35.3943 7.578 35.3328 7.58995 35.2755 7.61327C35.2182 7.63659 35.1661 7.67083 35.1222 7.71402C35.0783 7.7572 35.0435 7.80849 35.0198 7.86494C34.9961 7.92139 34.984 7.98188 34.9841 8.04296V9.68749C34.9849 9.81016 35.0351 9.92752 35.1236 10.0139C35.2121 10.1003 35.3317 10.1487 35.4563 10.1484H35.5555V15.8125L35.7579 15.9023C35.7308 16.1474 35.6624 16.3864 35.5555 16.6094C35.5291 16.6374 35.3897 16.5209 35.3532 16.5429C35.275 16.596 35.1823 16.6246 35.0873 16.625H34.3373C34.2753 16.6251 34.2138 16.6131 34.1565 16.5898C34.0991 16.5665 34.047 16.5323 34.0031 16.4891C33.9593 16.4459 33.9245 16.3946 33.9008 16.3382C33.8771 16.2817 33.865 16.2212 33.8651 16.1601V3.35937L33.754 2.90625C33.7504 2.83498 33.7658 2.76403 33.7985 2.70035C33.8312 2.63667 33.8801 2.58244 33.9405 2.54297C34.0157 2.49297 34.2398 2.57812 34.3373 2.57812H35.3532C35.4152 2.57801 35.4767 2.58996 35.534 2.61328C35.5914 2.6366 35.6435 2.67084 35.6873 2.71402C35.7312 2.75721 35.766 2.8085 35.7897 2.86495C35.8134 2.92139 35.8255 2.98189 35.8254 3.04297V4.19921C35.8252 4.32189 35.8743 4.43967 35.962 4.52678C36.0498 4.61389 36.169 4.66325 36.2936 4.66406H38C38.062 4.66417 38.1235 4.65222 38.1808 4.6289C38.2382 4.60558 38.2903 4.57134 38.3342 4.52816C38.378 4.48497 38.4128 4.43368 38.4365 4.37723C38.4602 4.32079 38.4723 4.26029 38.4722 4.19921V1.16016C38.4722 1.0078 38.4418 0.856925 38.3825 0.716159C38.3233 0.575393 38.2365 0.447491 38.1271 0.339757C38.0176 0.232022 37.8877 0.146567 37.7447 0.0882705C37.6017 0.0299746 37.4484 -1.9722e-05 37.2936 7.69071e-07H35.8254H31.9921ZM11.4643 0.0273445C11.3481 0.0387488 11.2404 0.0922108 11.1619 0.177371C11.0835 0.26253 11.0399 0.373324 11.0397 0.488281V17.8672C11.0412 18.2359 11.1904 18.5892 11.4549 18.8503C11.7194 19.1114 12.0779 19.2592 12.4524 19.2617H17.9167C18.1035 19.2615 18.2885 19.225 18.461 19.1545C18.6336 19.0839 18.7903 18.9805 18.9222 18.8503C19.0541 18.72 19.1587 18.5655 19.2299 18.3955C19.3011 18.2254 19.3377 18.0433 19.3373 17.8594V2.73047L19.0992 2.25L19.3294 1.73828V1.39844L19.1707 1.23047L19.3294 0.953124V0.488281C19.3286 0.365606 19.2784 0.248244 19.1899 0.161864C19.1015 0.075485 18.9818 0.0271187 18.8572 0.0273445H16.7461C16.6221 0.0281471 16.5035 0.0769677 16.4159 0.163237C16.3282 0.249506 16.2786 0.366281 16.2778 0.488281V12.2265L16.1548 12.6797L16.2778 13.0547V16.1406C16.2779 16.2017 16.2658 16.2622 16.2421 16.3186C16.2184 16.3751 16.1836 16.4264 16.1398 16.4695C16.0959 16.5127 16.0438 16.547 15.9864 16.5703C15.9291 16.5936 15.8676 16.6056 15.8056 16.6054L15.5754 16.3437L14.6072 16.4804L14.5635 16.6015C14.5015 16.6017 14.44 16.5897 14.3827 16.5664C14.3254 16.5431 14.2733 16.5088 14.2294 16.4656C14.1855 16.4224 14.1507 16.3712 14.127 16.3147C14.1033 16.2583 14.0912 16.1978 14.0913 16.1367V0.488281C14.0909 0.426871 14.0781 0.36615 14.0537 0.309638C14.0293 0.253127 13.9937 0.20195 13.9491 0.159074C13.9044 0.116198 13.8515 0.0824756 13.7935 0.0598632C13.7355 0.0372507 13.6735 0.0261975 13.6112 0.0273445H11.508C11.4935 0.0266809 11.4789 0.0266809 11.4643 0.0273445ZM24.754 2.57422H25.25C25.3746 2.57503 25.4939 2.62438 25.5816 2.7115C25.6694 2.79861 25.7185 2.91638 25.7183 3.03906V7.82811H24.8373L24.6588 7.61327L24.2818 7.55468V3.03906C24.2817 2.97798 24.2938 2.91749 24.3175 2.86104C24.3412 2.80459 24.376 2.7533 24.4198 2.71012C24.4637 2.66693 24.5158 2.63269 24.5731 2.60937C24.6305 2.58605 24.6919 2.5741 24.754 2.57422ZM4.46436 2.625C4.46965 2.62482 4.47494 2.62482 4.48023 2.625H5.56356C5.59492 2.62468 5.62603 2.63052 5.65506 2.64219C5.68409 2.65386 5.71047 2.67111 5.73264 2.69294C5.75482 2.71476 5.77234 2.74073 5.78419 2.76931C5.79604 2.79788 5.80198 2.8285 5.80166 2.85937V7.93749H6.03975L6.01991 8.43749H5.80166C5.80179 8.476 5.79418 8.51415 5.77927 8.54975C5.76436 8.58536 5.74244 8.6177 5.71478 8.64493C5.68712 8.67216 5.65426 8.69374 5.61809 8.70842C5.58192 8.72309 5.54316 8.73059 5.50404 8.73046H4.54769C4.50857 8.73059 4.46981 8.72309 4.43365 8.70842C4.39748 8.69374 4.36462 8.67216 4.33696 8.64493C4.30929 8.6177 4.28738 8.58536 4.27247 8.54975C4.25756 8.51415 4.24995 8.476 4.25008 8.43749L3.98024 8.23827L4.24611 7.97655V2.85937C4.24533 2.80029 4.26748 2.74315 4.30804 2.69959C4.34859 2.65604 4.4045 2.62936 4.46436 2.625ZM24.754 10.3984H25.25C25.3746 10.3992 25.4939 10.4486 25.5816 10.5357C25.6694 10.6228 25.7185 10.7406 25.7183 10.8633V14.2656L25.9564 14.6758L25.7183 14.9687V16.2031C25.7183 16.2471 25.849 16.2603 25.8572 16.3203C25.8461 16.4337 25.7956 16.5399 25.7143 16.6211C25.6354 16.6832 25.5376 16.7176 25.4365 16.7187C25.3715 16.7143 25.3081 16.6971 25.25 16.6679H24.754C24.6919 16.6681 24.6305 16.6561 24.5731 16.6328C24.5158 16.6095 24.4637 16.5752 24.4198 16.532C24.376 16.4889 24.3412 16.4376 24.3175 16.3811C24.2938 16.3247 24.2817 16.2642 24.2818 16.2031V10.8633C24.2817 10.8022 24.2938 10.7417 24.3175 10.6852C24.3412 10.6288 24.376 10.5775 24.4198 10.5343C24.4637 10.4911 24.5158 10.4569 24.5731 10.4336C24.6305 10.4103 24.6919 10.3983 24.754 10.3984ZM1.55961 20.8476C1.39522 20.8636 1.24276 20.9392 1.13198 21.0598C1.02119 21.1805 0.960023 21.3374 0.960402 21.5V23.2773H0.234213C0.20319 23.2775 0.172512 23.2837 0.14394 23.2956C0.115367 23.3075 0.0894617 23.3249 0.0677097 23.3466C0.0459576 23.3684 0.028787 23.3942 0.0171826 23.4225C0.00557819 23.4508 -0.000231577 23.4811 8.65459e-05 23.5117V24.2539C0.000493885 24.3149 0.0252915 24.3733 0.0691106 24.4164C0.11293 24.4595 0.172244 24.4839 0.234213 24.4843H0.952465V30.2851H0.234213C0.202849 30.2853 0.171841 30.2917 0.143003 30.3038C0.114166 30.3159 0.0880804 30.3336 0.0662754 30.3558C0.0444703 30.378 0.0273844 30.4043 0.0160188 30.433C0.00465324 30.4618 -0.000763326 30.4925 8.65459e-05 30.5234V31.2656C0.000493885 31.3266 0.0252915 31.385 0.0691106 31.4281C0.11293 31.4712 0.172244 31.4956 0.234213 31.496H0.952465V33.3476C0.952948 33.4341 0.970814 33.5197 1.00503 33.5994C1.03925 33.6791 1.08915 33.7513 1.15186 33.812C1.21456 33.8726 1.28883 33.9204 1.37038 33.9527C1.45194 33.985 1.53918 34.001 1.62707 34H38.2341C38.4103 34 38.5793 33.9314 38.7042 33.8092C38.8291 33.687 38.8998 33.521 38.9008 33.3476V31.496H39.7659C39.8278 31.4956 39.8871 31.4712 39.931 31.4281C39.9748 31.385 39.9996 31.3266 40 31.2656V30.5234C40.0003 30.4929 39.9945 30.4626 39.9829 30.4342C39.9713 30.4059 39.9541 30.3801 39.9324 30.3583C39.9106 30.3366 39.8847 30.3192 39.8561 30.3073C39.8276 30.2954 39.7969 30.2892 39.7659 30.289H38.9008V24.4882L39.7659 24.4843C39.8278 24.4839 39.8871 24.4595 39.931 24.4164C39.9748 24.3733 39.9996 24.3149 40 24.2539V23.5117C40.0003 23.4811 39.9945 23.4508 39.9829 23.4225C39.9713 23.3942 39.9541 23.3684 39.9324 23.3466C39.9106 23.3249 39.8847 23.3075 39.8561 23.2956C39.8276 23.2837 39.7969 23.2775 39.7659 23.2773H38.9008V21.5C38.9006 21.414 38.8831 21.329 38.8495 21.2497C38.8159 21.1704 38.7667 21.0984 38.7048 21.0378C38.6429 20.9772 38.5694 20.9292 38.4887 20.8966C38.4079 20.864 38.3214 20.8473 38.2341 20.8476H1.62707C1.60459 20.8465 1.58208 20.8465 1.55961 20.8476ZM2.28183 22.1523H37.5675V32.6875H2.28183V22.1523ZM5.88499 23.8672V31.2734H9.2699V29.8281H7.35324V23.8672H5.88499ZM14.7064 23.8672V31.2226H16.1746V23.8672H14.7064ZM22.8889 23.8672V23.8711H21.8254V25.2539H22.8889V31.2226H24.3572V25.2539H25.5437V23.8711H24.3572V23.8672H22.8889ZM30.8691 23.8672V26.7148H30.7103V27.9531H30.8691V31.2226H31.0119H32.3373H33.7183V29.875H32.3373V27.9531H33.6746V26.7148H32.3373V25.2539H33.8056V23.8711H32.3373V23.8672H30.8691Z" fill="black"/>
</svg>
