<svg width="38" height="38" viewBox="0 0 38 38" fill="none" xmlns="http://www.w3.org/2000/svg">
<path id="Vector" fill-rule="evenodd" clip-rule="evenodd" d="M8.04621 23.177L13.7632 29.609C14.2932 30.205 13.9462 31.151 13.1572 31.263L8.41021 31.941C8.14721 31.979 7.88121 31.91 7.66921 31.751L4.62923 29.471C4.26024 29.194 4.12824 28.701 4.31024 28.277L6.38022 23.447C6.66822 22.774 7.55921 22.629 8.04621 23.177ZM27.4911 6.245L30.3391 7.669C30.7321 7.865 30.95 8.295 30.878 8.728L30.2461 12.522C30.1291 13.225 29.3341 13.583 28.7301 13.206L23.3851 9.865C22.7521 9.469 22.7601 8.544 23.4011 8.16L26.5301 6.283C26.8221 6.107 27.1851 6.093 27.4911 6.245ZM6.62522 6C7.00022 6 7.30121 6.016 7.75021 6.375C8.31521 6.827 29.3271 21.694 33.341 24.534C33.727 24.807 33.866 25.304 33.679 25.738C33.076 27.139 31.802 30.121 31.256 31.398C31.1 31.766 30.7401 32 30.3401 32H27.4391C27.1591 32 26.8921 31.883 26.7031 31.677L4.93823 8.02C4.46823 7.51 4.64723 6.686 5.28823 6.42C5.81923 6.199 6.37022 6 6.62522 6ZM10.2432 1.277C10.0582 1.097 9.8142 1 9.5552 1H1.00026C0.472263 1.264 0.000266085 1.57 0.000266085 2.625V9.5V11.764C0.000266085 11.919 0.0362658 12.072 0.106265 12.211L0.777261 13.553C0.91826 13.835 0.91826 14.166 0.777261 14.447L0.000266085 16V17L1.00026 18V19L0.293264 19.707C0.105266 19.895 0.000266085 20.149 0.000266085 20.414V23.586C0.000266085 23.851 0.105266 24.106 0.293264 24.293L0.707261 24.707C0.89526 24.895 1.00026 25.149 1.00026 25.414V28.506C1.00026 28.802 0.86526 29.088 0.636262 29.275C-0.0327336 29.822 0.000266085 30.122 0.000266085 31V35.235C0.000266085 35.681 0.302264 36.072 0.730261 36.197C2.37225 36.675 2.63825 37 5.00023 37C7.36321 37 9.0002 37 9.0002 37C9.6142 37 10.2282 36.496 10.6102 36.205C10.8742 36.004 11.2342 35.928 11.5322 36.074C12.0052 36.307 12.6162 37 13.4142 37C14.0562 37 15.0782 36 15.6262 36C15.9742 36 16.8551 36.712 16.8551 36.712C16.9511 36.76 17.0391 36.823 17.1151 36.899L17.7071 37.707C17.8951 37.895 18.1491 38 18.4141 38H19.6071C19.8391 38 20.0651 37.924 20.2411 37.773C20.5791 37.482 21.2401 37.014 22.0001 37H26.7371C26.8971 37 27.0521 36.964 27.1941 36.889C27.4691 36.745 27.9821 36.297 28.3911 36.098C28.7831 35.907 29.2531 35.993 29.5521 36.308C29.6081 36.367 29.6631 36.427 29.7141 36.482C29.9031 36.689 30.1691 37 30.4481 37H32.586C32.851 37 33.106 36.895 33.293 36.707L33.572 36.295C33.836 36.031 34.221 35.934 34.578 36.048C34.903 36.151 35.931 36.78 36.776 36.975C37.402 37.119 38 36.643 38 36V23C38 22.448 37.552 22 37 22H36L36.707 21.293C36.895 21.105 37 20.851 37 20.586V17.236C37 17.081 36.964 16.928 36.894 16.789L36.322 15.645C36.13 15.26 36.205 14.795 36.509 14.491L37 14V13L37.707 12.293C37.895 12.105 38 11.851 38 11.586V8.123C38 8.041 37.99 7.96 37.97 7.88L37.137 4.549C37.052 4.209 37.152 3.848 37.4 3.6L38 3V2L37.234 1.234C37.082 1.082 36.885 0.983 36.672 0.952L33.514 0.489L32.722 1.056L32.298 0.436C32.111 0.163 31.803 0 31.472 0H26.0001C25.3831 0 25.0011 0.397 25.0011 0.993C25.0011 1.138 25.0001 2 24.0001 2C23.0001 2 23.0001 1 23.0001 1C23.0001 1 23.0001 0 21.8511 0H15.5512C15.2152 0 14.9022 0.166 14.7182 0.447C14.3322 1.036 13.6442 2 13.2782 2C12.7502 2 12.6202 2 12.0002 2C11.1382 2 10.5482 1.573 10.2432 1.277Z" fill="url(#paint0_linear)"/>
<defs>
<linearGradient id="paint0_linear" x1="14.6292" y1="-1.897" x2="23.5112" y2="39.89" gradientUnits="userSpaceOnUse">
<stop stop-color="#F45560"/>
<stop offset="1" stop-color="#CF1928"/>
</linearGradient>
</defs>
</svg>
